<?xml version="1.0" encoding="UTF-8"?>
<!DOCTYPE svg PUBLIC "-//W3C//DTD SVG 1.1//EN" "http://www.w3.org/Graphics/SVG/1.1/DTD/svg11.dtd">
<svg xmlns="http://www.w3.org/2000/svg" version="1.1" width="501px" height="173px" style="shape-rendering:geometricPrecision; text-rendering:geometricPrecision; image-rendering:optimizeQuality; fill-rule:evenodd; clip-rule:evenodd" xmlns:xlink="http://www.w3.org/1999/xlink">
<g><path style="opacity:0.345" fill="#632486" d="M 248.5,3.5 C 249.5,3.5 250.5,3.5 251.5,3.5C 251.5,4.5 251.5,5.5 251.5,6.5C 250.5,6.5 249.5,6.5 248.5,6.5C 248.5,5.5 248.5,4.5 248.5,3.5 Z"/></g>
<g><path style="opacity:1" fill="#11a9e2" d="M 90.5,4.5 C 124.689,2.5621 148.022,17.3954 160.5,49C 162.227,53.8336 162.893,58.667 162.5,63.5C 157.9,62.5565 153.233,62.2232 148.5,62.5C 143.575,35.246 127.242,20.5794 99.5,18.5C 71.7585,20.5794 55.4252,35.246 50.5,62.5C 45.7668,62.2232 41.1001,62.5565 36.5,63.5C 40.4422,31.2151 58.4422,11.5485 90.5,4.5 Z"/></g>
<g><path style="opacity:1" fill="#12a9e2" d="M 38.5,70.5 C 45.175,70.3337 51.8417,70.5004 58.5,71C 60.4156,76.0122 59.4156,80.3456 55.5,84C 48.5789,85.2189 41.5789,85.8855 34.5,86C 22.4372,92.1932 19.6039,101.36 26,113.5C 31.0691,118.948 37.2358,120.781 44.5,119C 45.061,112.474 45.8943,105.974 47,99.5C 50.922,97.6876 55.0887,97.021 59.5,97.5C 59.8319,107.522 59.4985,117.522 58.5,127.5C 41.7265,137.386 26.8932,135.053 14,120.5C 4.40025,103.216 7.23358,88.383 22.5,76C 27.5861,73.028 32.9194,71.1947 38.5,70.5 Z"/></g>
<g><path style="opacity:1" fill="#12a9e2" d="M 140.5,70.5 C 149.546,70.2356 158.546,70.7356 167.5,72C 187.631,80.0998 194.464,94.5998 188,115.5C 175.984,134.56 160.15,138.56 140.5,127.5C 139.501,117.522 139.168,107.522 139.5,97.5C 143.911,97.021 148.078,97.6876 152,99.5C 153.106,105.974 153.939,112.474 154.5,119C 171.658,120.176 178.491,112.342 175,95.5C 173.098,90.5995 169.598,87.4329 164.5,86C 157.421,85.8855 150.421,85.2189 143.5,84C 139.541,80.1736 138.541,75.6736 140.5,70.5 Z"/></g>
<g><path style="opacity:1" fill="#12a9e2" d="M 96.5,73.5 C 100.226,73.1774 103.893,73.5108 107.5,74.5C 116.833,93.1667 126.167,111.833 135.5,130.5C 130.869,131.662 126.202,131.828 121.5,131C 120.069,130.535 118.903,129.701 118,128.5C 112.061,116.956 106.394,105.289 101,93.5C 94.2126,106.245 87.0459,118.745 79.5,131C 74.467,131.829 69.467,131.662 64.5,130.5C 74.4186,110.987 85.0853,91.9874 96.5,73.5 Z"/></g>
<g><path style="opacity:1" fill="#11a9e2" d="M 208.5,73.5 C 221.833,73.5 235.167,73.5 248.5,73.5C 248.665,76.8499 248.498,80.1832 248,83.5C 246.891,85.8147 245.057,87.3147 242.5,88C 232.167,88.3333 221.833,88.6667 211.5,89C 210.167,90.6667 210.167,92.3333 211.5,94C 219.167,94.3333 226.833,94.6667 234.5,95C 246.229,97.9528 251.396,105.453 250,117.5C 248.237,124.262 244.07,128.762 237.5,131C 223.837,131.5 210.171,131.667 196.5,131.5C 195.314,125.199 197.314,120.366 202.5,117C 213.167,116.667 223.833,116.333 234.5,116C 237.126,112.577 236.126,110.577 231.5,110C 223.833,109.667 216.167,109.333 208.5,109C 197.588,103.606 194.088,95.1059 198,83.5C 200.409,78.9217 203.909,75.5883 208.5,73.5 Z"/></g>
<g><path style="opacity:1" fill="#11a8e2" d="M 256.5,73.5 C 272.503,73.3334 288.503,73.5001 304.5,74C 308.128,77.7925 309.294,82.2925 308,87.5C 292.908,88.6569 277.741,88.8236 262.5,88C 260.152,87.6541 258.319,86.4875 257,84.5C 256.501,80.8484 256.335,77.1817 256.5,73.5 Z"/></g>
<g><path style="opacity:1" fill="#11a9e2" d="M 310.5,72.5 C 316.753,73.2932 323.086,73.7932 329.5,74C 334.167,78.6667 338.833,83.3333 343.5,88C 341.5,90 339.5,92 337.5,94C 335.635,95.3014 333.635,95.6347 331.5,95C 323.228,88.5657 316.228,81.0657 310.5,72.5 Z"/></g>
<g><path style="opacity:1" fill="#12a9e2" d="M 382.5,72.5 C 383.289,72.7828 383.956,73.2828 384.5,74C 374.303,83.8628 364.47,94.0294 355,104.5C 354.937,112.603 354.27,120.603 353,128.5C 352.167,129.333 351.333,130.167 350.5,131C 347.183,131.498 343.85,131.665 340.5,131.5C 340.666,122.827 340.5,114.16 340,105.5C 338.322,104.534 337.655,103.201 338,101.5C 346.864,92.9702 355.364,84.1369 363.5,75C 369.907,73.915 376.24,73.0817 382.5,72.5 Z"/></g>
<g><path style="opacity:1" fill="#13a8e3" d="M 386.5,73.5 C 390.182,73.3347 393.848,73.5014 397.5,74C 398.333,74.8333 399.167,75.6667 400,76.5C 401.233,86.7749 401.9,97.1082 402,107.5C 403.5,111.667 406.333,114.5 410.5,116C 416.61,116.088 422.61,116.755 428.5,118C 429.333,118.833 430.167,119.667 431,120.5C 431.499,124.152 431.665,127.818 431.5,131.5C 423.826,131.666 416.159,131.5 408.5,131C 396.926,127.758 389.759,120.258 387,108.5C 386.5,96.8381 386.333,85.1714 386.5,73.5 Z"/></g>
<g><path style="opacity:1" fill="#11a9e2" d="M 437.5,73.5 C 455.167,73.5 472.833,73.5 490.5,73.5C 490.665,77.1817 490.499,80.8484 490,84.5C 489.167,85.3333 488.333,86.1667 487.5,87C 479.573,88.1186 471.573,88.6186 463.5,88.5C 455.427,88.6186 447.427,88.1186 439.5,87C 438.874,86.2496 438.374,85.4162 438,84.5C 437.501,80.8484 437.335,77.1817 437.5,73.5 Z"/></g>
<g><path style="opacity:1" fill="#11a8e2" d="M 274.5,93.5 C 278.605,93.2338 282.605,93.7338 286.5,95C 287.701,95.9025 288.535,97.0692 289,98.5C 289.5,109.495 289.667,120.495 289.5,131.5C 286.15,131.665 282.817,131.498 279.5,131C 278.069,130.535 276.903,129.701 276,128.5C 274.564,116.91 274.064,105.243 274.5,93.5 Z"/></g>
<g><path style="opacity:1" fill="#12a9e2" d="M 441.5,94.5 C 456.5,94.5 471.5,94.5 486.5,94.5C 486.665,98.1817 486.499,101.848 486,105.5C 485.5,107.333 484.333,108.5 482.5,109C 467.504,109.5 452.504,109.667 437.5,109.5C 437.335,105.818 437.501,102.152 438,98.5C 438.69,96.6498 439.856,95.3164 441.5,94.5 Z"/></g>
<g><path style="opacity:1" fill="#12a9e3" d="M 441.5,116.5 C 456.504,116.333 471.504,116.5 486.5,117C 488.667,117.833 490.167,119.333 491,121.5C 491.498,124.817 491.665,128.15 491.5,131.5C 473.5,131.5 455.5,131.5 437.5,131.5C 437.334,127.486 437.501,123.486 438,119.5C 439.145,118.364 440.312,117.364 441.5,116.5 Z"/></g>
</svg>
